<?xml version="1.0" encoding="utf-8"?>
<svg version="1.1" xmlns:xlink="http://www.w3.org/1999/xlink" width="12px" height="12px" viewBox="844 322  12 12" xmlns="http://www.w3.org/2000/svg">
  <path d="M 850 322  C 853.36 322  856 324.64  856 328  C 856 331.36  853.36 334  850 334  C 846.64 334  844 331.36  844 328  C 844 324.64  846.64 322  850 322  Z " fill-rule="nonzero" fill="#ffffff" stroke="none" />
  <path d="M 850 322.5  C 853.08 322.5  855.5 324.92  855.5 328  C 855.5 331.08  853.08 333.5  850 333.5  C 846.92 333.5  844.5 331.08  844.5 328  C 844.5 324.92  846.92 322.5  850 322.5  Z " stroke-width="1" stroke="#797979" fill="none" />
  <path d="M 850 331  C 848.32 331  847 329.68  847 328  C 847 326.32  848.32 325  850 325  C 851.68 325  853 326.32  853 328  C 853 329.68  851.68 331  850 331  " fill-rule="nonzero" fill="#797979" stroke="none" />
</svg>