<?xml version="1.0" encoding="utf-8"?>
<svg version="1.1" xmlns:xlink="http://www.w3.org/1999/xlink" width="12px" height="12px" viewBox="949 321  12 12" xmlns="http://www.w3.org/2000/svg">
  <path d="M 955 321  C 958.36 321  961 323.64  961 327  C 961 330.36  958.36 333  955 333  C 951.64 333  949 330.36  949 327  C 949 323.64  951.64 321  955 321  Z " fill-rule="nonzero" fill="#f0f0f0" stroke="none" />
  <path d="M 955 321.5  C 958.08 321.5  960.5 323.92  960.5 327  C 960.5 330.08  958.08 332.5  955 332.5  C 951.92 332.5  949.5 330.08  949.5 327  C 949.5 323.92  951.92 321.5  955 321.5  Z " stroke-width="1" stroke="#797979" fill="none" />
  <path d="M 955 330  C 953.32 330  952 328.68  952 327  C 952 325.32  953.32 324  955 324  C 956.68 324  958 325.32  958 327  C 958 328.68  956.68 330  955 330  " fill-rule="nonzero" fill="#797979" stroke="none" />
</svg>