<?xml version="1.0" encoding="utf-8"?>
<svg version="1.1" xmlns:xlink="http://www.w3.org/1999/xlink" width="50px" height="50px" xmlns="http://www.w3.org/2000/svg">
  <g transform="matrix(1 0 0 1 -1209 -601 )">
    <path d="M 11.8100890207715 28.7833827893175  L 28.7833827893175 11.8100890207715  L 38.160237388724 21.186943620178  L 21.186943620178 38.160237388724  L 11.8100890207715 28.7833827893175  Z M 21.186943620178 41.3946587537092  C 21.7210682492582 41.3946587537092  22.1661721068249 41.2166172106825  22.5222551928783 40.8605341246291  L 40.8605341246291 22.5222551928783  C 41.2363996043521 22.1463897131553  41.4243323442136 21.7012858555885  41.4243323442136 21.186943620178  C 41.4243323442136 20.6726013847676  41.2363996043521 20.2274975272008  40.8605341246291 19.8516320474777  L 30.1186943620178 9.10979228486647  C 29.7626112759644 8.75370919881306  29.3175074183976 8.57566765578635  28.7833827893175 8.57566765578635  C 28.2492581602374 8.57566765578635  27.8041543026706 8.75370919881306  27.4480712166172 9.10979228486647  L 9.10979228486647 27.4480712166172  C 8.73392680514342 27.8239366963403  8.5459940652819 28.269040553907  8.5459940652819 28.7833827893175  C 8.5459940652819 29.297725024728  8.73392680514342 29.7428288822948  9.10979228486647 30.1186943620178  L 19.8516320474777 40.8605341246291  C 20.2077151335312 41.2166172106825  20.6528189910979 41.3946587537092  21.186943620178 41.3946587537092  Z M 50 19.2729970326409  C 50 20.3313550939664  49.6340257171118 21.2265084075173  48.9020771513353 21.9584569732938  L 21.9881305637982 48.9020771513353  C 21.2561819980218 49.6340257171118  20.3610286844708 50  19.3026706231454 50  C 18.24431256182 50  17.349159248269 49.6340257171118  16.6172106824926 48.9020771513353  L 12.8783382789317 45.1632047477745  C 13.9861523244313 44.055390702275  14.540059347181 42.7101879327399  14.540059347181 41.1275964391691  C 14.540059347181 39.5450049455984  13.9861523244313 38.1998021760633  12.8783382789317 37.0919881305638  C 11.7705242334322 35.9841740850643  10.4253214638971 35.4302670623145  8.84272997032641 35.4302670623145  C 7.26013847675569 35.4302670623145  5.91493570722057 35.9841740850643  4.80712166172107 37.0919881305638  L 1.09792284866469 33.353115727003  C 0.36597428288823 32.6211671612265  0 31.7260138476756  0 30.6676557863501  C 0 29.6092977250247  0.36597428288823 28.7141444114738  1.09792284866469 27.9821958456973  L 28.0118694362018 1.09792284866469  C 28.7438180019782 0.365974282888226  29.6389713155292 0  30.6973293768546 0  C 31.75568743818 0  32.650840751731 0.365974282888226  33.3827893175074 1.09792284866469  L 37.0919881305638 4.80712166172107  C 35.9841740850643 5.91493570722057  35.4302670623145 7.26013847675568  35.4302670623145 8.84272997032641  C 35.4302670623145 10.4253214638971  35.9841740850643 11.7705242334322  37.0919881305638 12.8783382789317  C 38.1998021760633 13.9861523244313  39.5450049455984 14.540059347181  41.1275964391691 14.540059347181  C 42.7101879327399 14.540059347181  44.055390702275 13.9861523244313  45.1632047477745 12.8783382789317  L 48.9020771513353 16.5875370919881  C 49.6340257171118 17.3194856577646  50 18.2146389713155  50 19.2729970326409  Z " fill-rule="nonzero" fill="#000000" stroke="none" transform="matrix(1 0 0 1 1209 601 )" />
  </g>
</svg>