<?xml version="1.0" encoding="utf-8"?>
<svg version="1.1" xmlns:xlink="http://www.w3.org/1999/xlink" width="50px" height="48px" xmlns="http://www.w3.org/2000/svg">
  <g transform="matrix(1 0 0 1 -942 -606 )">
    <path d="M 8.83522727272727 32.1031652989449  C 10.3125 32.3282532239156  15.1325757575758 32.5908558030481  23.2954545454545 32.8909730363423  L 22.8693181818182 43.2450175849941  L 22.8125 43.8640093786635  L 10.8806818181818 43.0480656506448  C 10.1988636363636 42.9917936694021  9.56439393939394 42.6963657678781  8.97727272727273 42.1617819460727  C 8.39015151515152 41.6271981242673  7.94507575757576 41.0128956623681  7.64204545454545 40.3188745603751  C 7.43371212121212 39.8124267291911  7.29640151515152 39.2966002344666  7.23011363636364 38.7713950762016  C 7.16382575757576 38.2461899179367  7.20170454545455 37.6365767878077  7.34375 36.9425556858148  C 7.48579545454546 36.2485345838218  7.59943181818182 35.7327080890973  7.68465909090909 35.3950762016413  C 7.76988636363636 35.0574443141852  7.97348484848485 34.4572098475967  8.29545454545455 33.5943728018757  C 8.61742424242424 32.7315357561547  8.79734848484849 32.2344665885111  8.83522727272727 32.1031652989449  Z M 0 15.9249706916764  L 12.3011363636364 16.4032825322392  L 17.4147727272727 27.0668229777257  L 13.2386363636364 24.4783118405627  C 12.0454545454545 25.8288393903869  10.9895833333333 27.1840562719812  10.0710227272727 28.5439624853458  C 9.15246212121212 29.9038686987104  8.46590909090909 31.0762016412661  8.01136363636364 32.0609613130129  C 7.55681818181818 33.0457209847597  7.18276515151515 33.9320046893318  6.88920454545455 34.7198124267292  C 6.59564393939394 35.5076201641266  6.42045454545455 36.0984759671747  6.36363636363636 36.4923798358734  L 6.25 37.0832356389215  L 0.852272727272727 27.0386869871043  C 0.53030303030303 26.5509964830012  0.359848484848485 26.0257913247362  0.340909090909091 25.4630715123095  C 0.321969696969697 24.9003516998828  0.378787878787879 24.4595545134818  0.511363636363636 24.1406799531067  L 0.738636363636364 23.6342321219226  C 1.40151515151515 22.4525205158265  2.48106060606061 20.6893317702227  3.97727272727273 18.3446658851114  L 0 15.9249706916764  Z M 45.6818181818182 31.5685814771395  L 47.2727272727273 30.9495896834701  L 41.9318181818182 41.0504103165299  C 41.7045454545455 41.5943728018757  41.3589015151515 42.0304806565064  40.8948863636364 42.358733880422  C 40.4308712121212 42.6869871043376  40.0189393939394 42.8792497069168  39.6590909090909 42.9355216881594  L 39.1477272727273 43.0480656506448  C 37.8030303030303 43.179366940211  35.7291666666667 43.2919109026964  32.9261363636364 43.3856975381008  L 33.1534090909091 48  L 26.6193181818182 37.6740914419695  L 32.6136363636364 27.4888628370457  L 32.8125 32.3563892145369  C 36.032196969697 32.6565064478312  38.7121212121212 32.7033997655334  40.8522727272727 32.4970691676436  C 42.9924242424242 32.2907385697538  44.6022727272727 31.9812426729191  45.6818181818182 31.5685814771395  Z M 24.0625 3.96717467760844  C 24.5170454545455 4.4736225087925  24.8200757575758 4.80187573270808  24.9715909090909 4.95193434935522  C 24.0814393939394 6.13364595545135  21.5719696969697 10.2133645955451  17.4431818181818 17.1910902696366  L 8.4375 11.9296600234467  L 7.89772727272727 11.5920281359906  L 14.2897727272727 1.57561547479484  C 14.6685606060606 0.99413833528722  15.2367424242424 0.572098475967174  15.9943181818182 0.309495896834699  C 16.7518939393939 0.0468933177022244  17.5094696969697 -0.046893317702235  18.2670454545455 0.0281359906213368  C 18.7215909090909 0.0656506447831173  19.1808712121212 0.178194607268464  19.6448863636364 0.365767878077373  C 20.1089015151515 0.553341148886281  20.5066287878788 0.750293083235633  20.8380681818182 0.956623681125439  C 21.1695075757576 1.16295427901524  21.5625 1.47245017584994  22.0170454545455 1.88511137162954  C 22.4715909090909 2.29777256740914  22.8125 2.62133645955451  23.0397727272727 2.85580304806565  C 23.2670454545455 3.09026963657679  23.6079545454545 3.46072684642438  24.0625 3.96717467760844  Z M 43.0397727272727 13.8991793669402  L 43.5795454545455 13.5896834701055  L 49.6022727272727 23.8030480656506  C 49.9431818181818 24.4970691676436  50.061553030303 25.2098475967175  49.9573863636364 25.9413833528722  C 49.8532196969697 26.672919109027  49.592803030303 27.3669402110199  49.1761363636364 28.0234466588511  C 48.9299242424242 28.3985932004689  48.6174242424242 28.7456037514654  48.2386363636364 29.0644783118406  C 47.8598484848485 29.3833528722157  47.5 29.6459554513482  47.1590909090909 29.852286049238  C 46.8181818181818 30.0586166471278  46.3589015151515 30.2649472450176  45.78125 30.4712778429074  C 45.2035984848485 30.6776084407972  44.7585227272727 30.8276670574443  44.4460227272727 30.9214536928488  C 44.1335227272727 31.0152403282532  43.6458333333333 31.1465416178195  42.9829545454545 31.3153575615475  C 42.3200757575758 31.4841735052755  41.8844696969697 31.5967174677608  41.6761363636364 31.6529894490035  C 41.032196969697 30.3024618991794  38.5227272727273 26.2133645955451  34.1477272727273 19.3856975381008  L 43.0397727272727 13.8991793669402  Z M 36.3352272727273 1.88511137162954  C 37.0738636363636 3.02930832356389  38.1344696969697 4.81125439624853  39.5170454545455 7.23094958968347  L 43.5511363636364 4.89566236811254  L 37.3011363636364 15.390386869871  L 25.3977272727273 14.8276670574443  L 29.6875 12.4079718640094  C 29.0435606060606 10.7385697538101  28.3333333333333 9.18171160609613  27.5568181818182 7.73739742086753  C 26.780303030303 6.29308323563892  26.0653409090909 5.13481828839391  25.4119318181818 4.26260257913247  C 24.7585227272727 3.39038686987104  24.1477272727273 2.6400937866354  23.5795454545455 2.01172332942556  C 23.0113636363636 1.3833528722157  22.5662878787879 0.94724501758499  22.2443181818182 0.703399765533414  L 21.7613636363636 1  L 33.2670454545455 1  C 33.8541666666667 0.309495896834699  34.4034090909091 0.407971864009378  34.9147727272727 0.661195779601409  C 35.4261363636364 0.914419695193434  35.7954545454545 1.18171160609613  36.0227272727273 1.4630715123095  L 36.3352272727273 1.88511137162954  Z " fill-rule="nonzero" fill="#000000" stroke="none" transform="matrix(1 0 0 1 942 606 )" />
  </g>
</svg>