<?xml version="1.0" encoding="utf-8"?>
<svg version="1.1" xmlns:xlink="http://www.w3.org/1999/xlink" width="1306px" height="272px" xmlns="http://www.w3.org/2000/svg">
  <g transform="matrix(1 0 0 1 -45 -110 )">
    <path d="M 45 110  L 1351 110  L 1351 382  L 45 382  L 45 110  " fill-rule="nonzero" fill="#cccccc" stroke="none" />
    <path d="M 64 129  L 1332 129  L 1332 363  L 64 363  L 64 129  " fill-rule="nonzero" fill="#ffffff" stroke="none" />
    <path d="M 744.52 191.6  C 733.096 191.6  724.12 182.624  724.12 171.2  C 724.12 159.776  733.096 150.8  744.52 150.8  C 755.944 150.8  764.92 159.776  764.92 171.2  C 764.92 182.624  755.944 191.6  744.52 191.6  " fill-rule="nonzero" fill="#cccccc" stroke="none" />
    <path d="M 71 356  L 71 235  L 384.5 180  L 823.4 328.508422664625  L 1074.2 213  L 1325 328.508422664625  L 1325 356  L 71 356  " fill-rule="nonzero" fill="#169bd5" stroke="none" />
  </g>
</svg>