<?xml version="1.0" encoding="utf-8"?>
<svg version="1.1" xmlns:xlink="http://www.w3.org/1999/xlink" width="12px" height="12px" viewBox="924 564  12 12" xmlns="http://www.w3.org/2000/svg">
  <path d="M 930 564  C 933.36 564  936 566.64  936 570  C 936 573.36  933.36 576  930 576  C 926.64 576  924 573.36  924 570  C 924 566.64  926.64 564  930 564  Z " fill-rule="nonzero" fill="#f0f0f0" stroke="none" />
  <path d="M 930 564.5  C 933.08 564.5  935.5 566.92  935.5 570  C 935.5 573.08  933.08 575.5  930 575.5  C 926.92 575.5  924.5 573.08  924.5 570  C 924.5 566.92  926.92 564.5  930 564.5  Z " stroke-width="1" stroke="#797979" fill="none" />
  <path d="M 930 573  C 928.32 573  927 571.68  927 570  C 927 568.32  928.32 567  930 567  C 931.68 567  933 568.32  933 570  C 933 571.68  931.68 573  930 573  " fill-rule="nonzero" fill="#797979" stroke="none" />
</svg>