<?xml version="1.0" encoding="utf-8"?>
<svg version="1.1" xmlns:xlink="http://www.w3.org/1999/xlink" width="12px" height="12px" viewBox="1010 564  12 12" xmlns="http://www.w3.org/2000/svg">
  <path d="M 1016 564  C 1019.36 564  1022 566.64  1022 570  C 1022 573.36  1019.36 576  1016 576  C 1012.64 576  1010 573.36  1010 570  C 1010 566.64  1012.64 564  1016 564  Z " fill-rule="nonzero" fill="#f0f0f0" stroke="none" />
  <path d="M 1016 564.5  C 1019.08 564.5  1021.5 566.92  1021.5 570  C 1021.5 573.08  1019.08 575.5  1016 575.5  C 1012.92 575.5  1010.5 573.08  1010.5 570  C 1010.5 566.92  1012.92 564.5  1016 564.5  Z " stroke-width="1" stroke="#797979" fill="none" />
  <path d="M 1016 573  C 1014.32 573  1013 571.68  1013 570  C 1013 568.32  1014.32 567  1016 567  C 1017.68 567  1019 568.32  1019 570  C 1019 571.68  1017.68 573  1016 573  " fill-rule="nonzero" fill="#797979" stroke="none" />
</svg>