<?xml version="1.0" encoding="utf-8"?>
<svg version="1.1" xmlns:xlink="http://www.w3.org/1999/xlink" width="12px" height="12px" viewBox="1089 564  12 12" xmlns="http://www.w3.org/2000/svg">
  <path d="M 1095 564  C 1098.36 564  1101 566.64  1101 570  C 1101 573.36  1098.36 576  1095 576  C 1091.64 576  1089 573.36  1089 570  C 1089 566.64  1091.64 564  1095 564  Z " fill-rule="nonzero" fill="#ffffff" stroke="none" />
  <path d="M 1095 564.5  C 1098.08 564.5  1100.5 566.92  1100.5 570  C 1100.5 573.08  1098.08 575.5  1095 575.5  C 1091.92 575.5  1089.5 573.08  1089.5 570  C 1089.5 566.92  1091.92 564.5  1095 564.5  Z " stroke-width="1" stroke="#797979" fill="none" />
  <path d="M 1095 573  C 1093.32 573  1092 571.68  1092 570  C 1092 568.32  1093.32 567  1095 567  C 1096.68 567  1098 568.32  1098 570  C 1098 571.68  1096.68 573  1095 573  " fill-rule="nonzero" fill="#797979" stroke="none" />
</svg>