<?xml version="1.0" encoding="utf-8"?>
<svg version="1.1" xmlns:xlink="http://www.w3.org/1999/xlink" width="7px" height="15px" xmlns="http://www.w3.org/2000/svg">
  <g transform="matrix(1 0 0 1 -600 -267 )">
    <path d="M 0.538461538461539 11.5178571428571  L 0.538461538461539 13.9285714285714  L 1.75 13.9285714285714  L 1.75 11.5178571428571  L 0.538461538461539 11.5178571428571  Z M 2.01923076923077 11.5178571428571  L 2.01923076923077 13.9285714285714  L 3.36538461538462 13.9285714285714  L 3.36538461538462 11.5178571428571  L 2.01923076923077 11.5178571428571  Z M 0.538461538461539 8.30357142857143  L 0.538461538461539 10.9821428571429  L 1.75 10.9821428571429  L 1.75 8.30357142857143  L 0.538461538461539 8.30357142857143  Z M 2.01923076923077 8.30357142857143  L 2.01923076923077 10.9821428571429  L 3.36538461538462 10.9821428571429  L 3.36538461538462 8.30357142857143  L 2.01923076923077 8.30357142857143  Z M 0.538461538461539 5.35714285714286  L 0.538461538461539 7.76785714285714  L 1.75 7.76785714285714  L 1.75 5.35714285714286  L 0.538461538461539 5.35714285714286  Z M 3.63461538461539 11.5178571428571  L 3.63461538461539 13.9285714285714  L 4.98076923076923 13.9285714285714  L 4.98076923076923 11.5178571428571  L 3.63461538461539 11.5178571428571  Z M 2.01923076923077 5.35714285714286  L 2.01923076923077 7.76785714285714  L 3.36538461538462 7.76785714285714  L 3.36538461538462 5.35714285714286  L 2.01923076923077 5.35714285714286  Z M 5.25 11.5178571428571  L 5.25 13.9285714285714  L 6.46153846153846 13.9285714285714  L 6.46153846153846 11.5178571428571  L 5.25 11.5178571428571  Z M 3.63461538461539 8.30357142857143  L 3.63461538461539 10.9821428571429  L 4.98076923076923 10.9821428571429  L 4.98076923076923 8.30357142857143  L 3.63461538461539 8.30357142857143  Z M 2.11388221153846 3.93833705357143  C 2.14052483974359 3.88532366071428  2.15384615384615 3.82254464285714  2.15384615384615 3.75  L 2.15384615384615 1.33928571428571  C 2.15384615384615 1.26674107142857  2.14052483974359 1.20396205357143  2.11388221153846 1.15094866071429  C 2.08723958333333 1.09793526785714  2.0556891025641 1.07142857142857  2.01923076923077 1.07142857142857  L 1.75 1.07142857142857  C 1.71354166666667 1.07142857142857  1.68199118589744 1.09793526785714  1.65534855769231 1.15094866071429  C 1.62870592948718 1.20396205357143  1.61538461538462 1.26674107142857  1.61538461538462 1.33928571428571  L 1.61538461538462 3.75  C 1.61538461538462 3.82254464285714  1.62870592948718 3.88532366071428  1.65534855769231 3.93833705357143  C 1.68199118589744 3.99135044642857  1.71354166666667 4.01785714285714  1.75 4.01785714285714  L 2.01923076923077 4.01785714285714  C 2.0556891025641 4.01785714285714  2.08723958333333 3.99135044642857  2.11388221153846 3.93833705357143  Z M 5.25 8.30357142857143  L 5.25 10.9821428571429  L 6.46153846153846 10.9821428571429  L 6.46153846153846 8.30357142857143  L 5.25 8.30357142857143  Z M 3.63461538461539 5.35714285714286  L 3.63461538461539 7.76785714285714  L 4.98076923076923 7.76785714285714  L 4.98076923076923 5.35714285714286  L 3.63461538461539 5.35714285714286  Z M 5.25 5.35714285714286  L 5.25 7.76785714285714  L 6.46153846153846 7.76785714285714  L 6.46153846153846 5.35714285714286  L 5.25 5.35714285714286  Z M 5.34465144230769 3.93833705357143  C 5.37129407051282 3.88532366071428  5.38461538461539 3.82254464285714  5.38461538461539 3.75  L 5.38461538461539 1.33928571428571  C 5.38461538461539 1.26674107142857  5.37129407051282 1.20396205357143  5.34465144230769 1.15094866071429  C 5.31800881410256 1.09793526785714  5.28645833333333 1.07142857142857  5.25 1.07142857142857  L 4.98076923076923 1.07142857142857  C 4.9443108974359 1.07142857142857  4.91276041666667 1.09793526785714  4.88611778846154 1.15094866071429  C 4.85947516025641 1.20396205357143  4.84615384615385 1.26674107142857  4.84615384615385 1.33928571428571  L 4.84615384615385 3.75  C 4.84615384615385 3.82254464285714  4.85947516025641 3.88532366071428  4.88611778846154 3.93833705357143  C 4.91276041666667 3.99135044642857  4.9443108974359 4.01785714285714  4.98076923076923 4.01785714285714  L 5.25 4.01785714285714  C 5.28645833333333 4.01785714285714  5.31800881410256 3.99135044642857  5.34465144230769 3.93833705357143  Z M 6.84014423076923 2.4609375  C 6.94671474358974 2.67299107142857  7 2.92410714285714  7 3.21428571428571  L 7 13.9285714285714  C 7 14.21875  6.94671474358974 14.4698660714286  6.84014423076923 14.6819196428571  C 6.73357371794872 14.8939732142857  6.6073717948718 15  6.46153846153846 15  L 0.538461538461539 15  C 0.392628205128205 15  0.266426282051282 14.8939732142857  0.159855769230769 14.6819196428571  C 0.0532852564102564 14.4698660714286  0 14.21875  0 13.9285714285714  L 0 3.21428571428571  C 0 2.92410714285714  0.0532852564102564 2.67299107142857  0.159855769230769 2.4609375  C 0.266426282051282 2.24888392857143  0.392628205128205 2.14285714285714  0.538461538461539 2.14285714285714  L 1.07692307692308 2.14285714285714  L 1.07692307692308 1.33928571428571  C 1.07692307692308 0.970982142857144  1.14282852564103 0.655691964285713  1.27463942307692 0.393415178571429  C 1.40645032051282 0.131138392857143  1.56490384615385 0  1.75 0  L 2.01923076923077 0  C 2.20432692307692 0  2.36278044871795 0.131138392857143  2.49459134615385 0.393415178571429  C 2.62640224358974 0.655691964285713  2.69230769230769 0.970982142857144  2.69230769230769 1.33928571428571  L 2.69230769230769 2.14285714285714  L 4.30769230769231 2.14285714285714  L 4.30769230769231 1.33928571428571  C 4.30769230769231 0.970982142857144  4.37359775641026 0.655691964285713  4.50540865384615 0.393415178571429  C 4.63721955128205 0.131138392857143  4.79567307692308 0  4.98076923076923 0  L 5.25 0  C 5.43509615384615 0  5.59354967948718 0.131138392857143  5.72536057692308 0.393415178571429  C 5.85717147435898 0.655691964285713  5.92307692307692 0.970982142857144  5.92307692307692 1.33928571428571  L 5.92307692307692 2.14285714285714  L 6.46153846153846 2.14285714285714  C 6.6073717948718 2.14285714285714  6.73357371794872 2.24888392857143  6.84014423076923 2.4609375  Z " fill-rule="nonzero" fill="#8c8c8c" stroke="none" transform="matrix(1 0 0 1 600 267 )" />
  </g>
</svg>