<?xml version="1.0" encoding="utf-8"?>
<svg version="1.1" xmlns:xlink="http://www.w3.org/1999/xlink" width="12px" height="12px" viewBox="1446 434  12 12" xmlns="http://www.w3.org/2000/svg">
  <path d="M 1452 434  C 1455.36 434  1458 436.64  1458 440  C 1458 443.36  1455.36 446  1452 446  C 1448.64 446  1446 443.36  1446 440  C 1446 436.64  1448.64 434  1452 434  Z " fill-rule="nonzero" fill="#ffffff" stroke="none" />
  <path d="M 1452 434.5  C 1455.08 434.5  1457.5 436.92  1457.5 440  C 1457.5 443.08  1455.08 445.5  1452 445.5  C 1448.92 445.5  1446.5 443.08  1446.5 440  C 1446.5 436.92  1448.92 434.5  1452 434.5  Z " stroke-width="1" stroke="#797979" fill="none" />
  <path d="M 1452 443  C 1450.32 443  1449 441.68  1449 440  C 1449 438.32  1450.32 437  1452 437  C 1453.68 437  1455 438.32  1455 440  C 1455 441.68  1453.68 443  1452 443  " fill-rule="nonzero" fill="#797979" stroke="none" />
</svg>