<?xml version="1.0" encoding="utf-8"?>
<svg version="1.1" xmlns:xlink="http://www.w3.org/1999/xlink" width="12px" height="12px" viewBox="1551 433  12 12" xmlns="http://www.w3.org/2000/svg">
  <path d="M 1557 433  C 1560.36 433  1563 435.64  1563 439  C 1563 442.36  1560.36 445  1557 445  C 1553.64 445  1551 442.36  1551 439  C 1551 435.64  1553.64 433  1557 433  Z " fill-rule="nonzero" fill="#f0f0f0" stroke="none" />
  <path d="M 1557 433.5  C 1560.08 433.5  1562.5 435.92  1562.5 439  C 1562.5 442.08  1560.08 444.5  1557 444.5  C 1553.92 444.5  1551.5 442.08  1551.5 439  C 1551.5 435.92  1553.92 433.5  1557 433.5  Z " stroke-width="1" stroke="#797979" fill="none" />
  <path d="M 1557 442  C 1555.32 442  1554 440.68  1554 439  C 1554 437.32  1555.32 436  1557 436  C 1558.68 436  1560 437.32  1560 439  C 1560 440.68  1558.68 442  1557 442  " fill-rule="nonzero" fill="#797979" stroke="none" />
</svg>