<?xml version="1.0" encoding="utf-8"?>
<svg version="1.1" xmlns:xlink="http://www.w3.org/1999/xlink" width="12px" height="12px" viewBox="1329 429  12 12" xmlns="http://www.w3.org/2000/svg">
  <path d="M 1335 429  C 1338.36 429  1341 431.64  1341 435  C 1341 438.36  1338.36 441  1335 441  C 1331.64 441  1329 438.36  1329 435  C 1329 431.64  1331.64 429  1335 429  Z " fill-rule="nonzero" fill="#ffffff" stroke="none" />
  <path d="M 1335 429.5  C 1338.08 429.5  1340.5 431.92  1340.5 435  C 1340.5 438.08  1338.08 440.5  1335 440.5  C 1331.92 440.5  1329.5 438.08  1329.5 435  C 1329.5 431.92  1331.92 429.5  1335 429.5  Z " stroke-width="1" stroke="#797979" fill="none" />
  <path d="M 1335 438  C 1333.32 438  1332 436.68  1332 435  C 1332 433.32  1333.32 432  1335 432  C 1336.68 432  1338 433.32  1338 435  C 1338 436.68  1336.68 438  1335 438  " fill-rule="nonzero" fill="#797979" stroke="none" />
</svg>