<?xml version="1.0" encoding="utf-8"?>
<svg version="1.1" xmlns:xlink="http://www.w3.org/1999/xlink" width="12px" height="12px" viewBox="1434 428  12 12" xmlns="http://www.w3.org/2000/svg">
  <path d="M 1440 428  C 1443.36 428  1446 430.64  1446 434  C 1446 437.36  1443.36 440  1440 440  C 1436.64 440  1434 437.36  1434 434  C 1434 430.64  1436.64 428  1440 428  Z " fill-rule="nonzero" fill="#ffffff" stroke="none" />
  <path d="M 1440 428.5  C 1443.08 428.5  1445.5 430.92  1445.5 434  C 1445.5 437.08  1443.08 439.5  1440 439.5  C 1436.92 439.5  1434.5 437.08  1434.5 434  C 1434.5 430.92  1436.92 428.5  1440 428.5  Z " stroke-width="1" stroke="#797979" fill="none" />
  <path d="M 1440 437  C 1438.32 437  1437 435.68  1437 434  C 1437 432.32  1438.32 431  1440 431  C 1441.68 431  1443 432.32  1443 434  C 1443 435.68  1441.68 437  1440 437  " fill-rule="nonzero" fill="#797979" stroke="none" />
</svg>