<?xml version="1.0" encoding="utf-8"?>
<svg version="1.1" xmlns:xlink="http://www.w3.org/1999/xlink" width="12px" height="12px" viewBox="855 330  12 12" xmlns="http://www.w3.org/2000/svg">
  <path d="M 861 330  C 864.36 330  867 332.64  867 336  C 867 339.36  864.36 342  861 342  C 857.64 342  855 339.36  855 336  C 855 332.64  857.64 330  861 330  Z " fill-rule="nonzero" fill="#f0f0f0" stroke="none" />
  <path d="M 861 330.5  C 864.08 330.5  866.5 332.92  866.5 336  C 866.5 339.08  864.08 341.5  861 341.5  C 857.92 341.5  855.5 339.08  855.5 336  C 855.5 332.92  857.92 330.5  861 330.5  Z " stroke-width="1" stroke="#797979" fill="none" />
  <path d="M 861 339  C 859.32 339  858 337.68  858 336  C 858 334.32  859.32 333  861 333  C 862.68 333  864 334.32  864 336  C 864 337.68  862.68 339  861 339  " fill-rule="nonzero" fill="#797979" stroke="none" />
</svg>